<svg width="230" height="175" viewBox="0 0 230 175" fill="none" xmlns="http://www.w3.org/2000/svg">
<path d="M29.1512 158.057C27.4019 158.053 26.0587 157.667 25.1215 156.897C24.227 156.127 23.7592 155.358 23.718 154.59L23.6561 153.502L23.6953 133.406C23.7019 130.035 22.8314 127.879 21.0839 126.937C20.1888 126.508 19.0798 126.293 17.7572 126.29C15.0265 126.285 12.5711 127.368 10.3908 129.54C8.21067 131.669 7.11893 133.587 7.1156 135.294L7.07129 158.014L2.5913 158.005L2.65371 126.005L7.1337 126.014L7.11947 133.31C7.84838 131.476 9.19571 129.772 11.1615 128.198C13.1273 126.58 15.2835 125.774 17.6302 125.778C19.9768 125.783 21.875 126.021 23.3248 126.493C24.8173 126.923 25.9041 127.544 26.5852 128.356C27.6493 129.68 28.1793 131.388 28.1752 133.479L28.1361 153.511C28.1337 154.748 28.3665 155.708 28.8345 156.392C29.3452 157.033 29.8566 157.375 30.3685 157.419L31.0722 157.548L33.0562 157.552L33.0552 158.064L29.1512 158.057ZM40.0362 142.462C40.0259 147.753 40.9356 151.637 42.7655 154.115C44.638 156.594 47.0889 157.836 50.1182 157.842C54.3849 157.85 58.1834 157.217 61.5139 155.944L61.7051 156.392C58.2891 157.708 54.4265 158.362 50.1172 158.354C45.8505 158.345 42.3757 157.058 39.6927 154.493C37.0097 151.928 35.6734 147.979 35.6838 142.645C35.6942 137.312 37.1103 133.176 39.932 130.238C42.7538 127.299 46.3406 125.834 50.6926 125.843C54.1913 125.849 57.1332 126.901 59.5185 128.996C61.9037 131.091 63.0924 134.187 63.0844 138.283C63.084 138.496 63.0835 138.709 63.0831 138.923L40.2352 138.878C40.1049 140.03 40.0386 141.225 40.0362 142.462ZM58.7321 138.402C58.6975 134.306 57.914 131.275 56.3819 129.31C54.8497 127.344 52.8676 126.359 50.4356 126.354C48.0036 126.349 45.8255 127.412 43.9014 129.541C42.0199 131.671 40.8195 134.613 40.3002 138.366L58.7321 138.402ZM66.0212 158.129L66.0222 157.617C66.9182 157.618 67.8148 157.279 68.7122 156.598C69.6522 155.917 70.3575 155.236 70.8282 154.554L78.8511 142.794L67.4916 126.131L72.1636 126.141L81.9277 140.432L91.4275 126.178L92.0675 126.179L82.1828 140.88L94.0531 158.183L89.3811 158.174L79.1064 143.178L72.1742 153.533C72.0886 153.66 71.9816 153.831 71.8532 154.044C71.7247 154.257 71.4467 154.619 71.019 155.13C70.5914 155.642 70.1425 156.089 69.6724 156.472C68.3903 157.579 67.1732 158.131 66.0212 158.129ZM104.413 123.195L104.408 126.203L109.464 126.213L109.463 126.725L104.407 126.715L104.345 158.203L99.8651 158.195L99.9265 126.707L98.5825 126.704L98.5835 126.192L99.9275 126.195L99.9334 123.187C99.9425 118.536 100.952 115.231 102.961 113.273C104.97 111.271 108.215 110.253 112.695 110.22L112.694 110.732C109.75 110.768 107.636 111.767 106.352 113.727C105.068 115.645 104.422 118.801 104.413 123.195ZM128.384 158.506C123.904 158.497 120.258 157.21 117.447 154.645C114.636 152.079 113.236 148.13 113.246 142.797C113.257 137.463 114.715 133.328 117.622 130.389C120.572 127.451 124.287 125.986 128.767 125.995C133.29 126.004 136.956 127.291 139.767 129.856C142.578 132.422 143.979 136.371 143.968 141.705C143.958 147.038 142.478 151.174 139.528 154.112C136.621 157.05 132.906 158.515 128.384 158.506ZM128.894 126.507C125.651 126.501 122.96 127.946 120.821 130.843C118.683 133.698 117.608 137.707 117.598 142.869C117.588 147.989 118.562 151.788 120.52 154.267C122.478 156.745 125.078 157.988 128.321 157.994C131.563 158 134.254 156.576 136.393 153.722C138.532 150.825 139.606 146.816 139.616 141.696C139.626 136.533 138.653 132.713 136.695 130.234C134.737 127.756 132.137 126.513 128.894 126.507ZM160.06 129.064L160.062 127.72C158.141 128.484 156.388 130.038 154.805 132.382C153.222 134.683 152.386 136.857 152.296 138.905L152.259 158.297L147.779 158.288L147.841 126.288L152.321 126.297L152.301 136.473C152.989 134 154.294 131.677 156.219 129.504C158.143 127.29 160.321 126.142 162.753 126.061L163.009 126.062C163.863 126.063 164.566 126.363 165.12 126.962C165.716 127.518 166.013 128.222 166.012 129.076C166.01 129.929 165.71 130.632 165.111 131.186C164.556 131.739 163.851 132.015 162.998 132.014C162.144 132.012 161.441 131.733 160.887 131.178C160.334 130.622 160.058 129.917 160.06 129.064ZM183.879 126.614C180.85 126.609 178.308 128.054 176.254 130.952C174.243 133.849 173.233 137.858 173.223 142.978C173.213 148.098 174.123 151.897 175.953 154.375C177.825 156.853 180.276 158.095 183.305 158.101C187.103 158.109 190.475 157.475 193.421 156.201L193.612 156.649C190.58 157.966 187.038 158.621 182.984 158.613C178.931 158.605 175.563 157.318 172.88 154.753C170.197 152.188 168.861 148.238 168.871 142.905C168.881 137.572 170.298 133.436 173.119 130.497C175.941 127.559 179.528 126.094 183.88 126.102C186.312 126.107 188.551 126.666 190.597 127.78C192.685 128.893 194.218 130.581 195.195 132.844L191.099 132.837C190.463 130.745 189.485 129.185 188.164 128.159C186.886 127.132 185.458 126.617 183.879 126.614ZM203.411 142.781C203.401 148.071 204.31 151.956 206.14 154.434C208.013 156.912 210.464 158.154 213.493 158.16C217.76 158.169 221.558 157.536 224.889 156.262L225.08 156.711C221.664 158.027 217.801 158.681 213.492 158.672C209.225 158.664 205.75 157.377 203.067 154.812C200.384 152.247 199.048 148.297 199.059 142.964C199.069 137.631 200.485 133.495 203.307 130.556C206.128 127.618 209.715 126.153 214.067 126.161C217.566 126.168 220.508 127.219 222.893 129.315C225.278 131.41 226.467 134.505 226.459 138.601C226.459 138.815 226.458 139.028 226.458 139.241L203.61 139.197C203.48 140.349 203.413 141.543 203.411 142.781ZM222.107 138.721C222.072 134.625 221.289 131.594 219.757 129.628C218.224 127.663 216.242 126.678 213.81 126.673C211.378 126.668 209.2 127.73 207.276 129.86C205.395 131.99 204.194 134.931 203.675 138.685L222.107 138.721Z" fill="black"/>
<path d="M122.416 0C122.082 0.00394506 121.752 0.0274834 121.41 0.0733562C114.136 1.05311 112.962 5.00432 112.962 5.00432L112.989 5.0319C111.193 7.52362 110.039 11.4527 110.041 17.2022C110.04 17.8361 110.059 18.4424 110.077 19.0324L109.935 17.6003C109.843 17.2599 109.577 17.0341 109.269 16.869C108.819 16.6139 108.466 16.6067 108.008 16.8049C106.714 17.3673 106.681 18.9019 106.765 20.1046C106.82 20.9349 106.839 21.8015 107.153 22.5842C107.453 23.3227 108.288 24.7361 109.277 24.4238C109.675 24.2981 110.029 24.0973 110.334 23.8101C110.37 23.7826 110.474 23.677 110.522 23.6155C111.537 29.591 114.028 32.3577 116.837 33.4294C116.937 33.6588 117.395 34.2671 117.226 34.5205C117.008 34.8435 116.199 34.3829 115.937 34.3013C114.867 33.9765 114.054 33.108 113.13 32.5325C112.852 32.3609 112.568 32.2288 112.269 32.0985C111.871 31.9251 111.397 31.6802 110.955 31.8426C110.153 32.1334 110.256 34.7351 110.229 35.3841C110.221 35.7337 109.977 37.1139 110.04 37.3615C110.05 37.3982 110.15 37.4762 110.224 37.5322L109.945 37.4679L98.5759 37.5817L79.4456 47.1588L79.4915 49.0602L70 55.8732C70 55.8732 70.544 69.8025 72.5647 80.764C74.5861 91.7253 82.9096 101.089 82.9096 101.089C82.9096 101.089 91.1237 107.437 91.6664 104.199C92.2086 100.961 90.9756 96.7998 90.1207 94.9062C89.2656 93.0133 84.7777 91.0895 84.7777 91.0895L82.8527 67.242L83.2151 66.7796C83.2609 66.8163 83.3068 66.8888 83.3674 66.92C83.3707 66.9221 83.3732 66.9269 83.3748 66.9255C83.3835 66.9281 83.3932 66.9438 83.4116 66.9438L91.0068 71.9932L91.0435 81.1671L93.9496 81.3717L96.4773 84.325L96.6104 75.5066L105.069 81.2999L105.263 88.2315C105.124 88.2774 105.013 88.3049 105.013 88.3049C105.013 88.3049 98.2995 92.9615 99.8022 94.9233C101.305 96.8851 107.679 97.5801 109.943 97.6353C112.208 97.6903 117.979 94.2026 117.979 94.2026L145.988 86.9552C145.988 86.9552 146.095 77.4797 145.67 73.7134C145.245 69.9474 142.987 63.3211 142.987 63.3211L145.277 62.5486L137.417 46.3248L125.384 41.209L125.28 41.1814C125.234 41.0447 125.134 40.8915 125.097 40.752C124.984 40.3382 124.876 39.9548 124.902 39.5197C124.985 38.2136 125.086 37.0059 125.58 35.7553C125.672 35.5195 126.471 34.8763 126.679 34.6307C127.112 34.1188 127.608 33.43 127.983 32.7629C130.577 29.3103 134.069 23.0356 133.496 14.7988C133.494 14.7254 133.46 14.6482 133.46 14.5758C133.506 14.7253 133.558 14.8189 133.533 14.8345L139.587 14.8161C139.587 14.8161 141.144 14.2428 140.567 13.0465C139.999 11.8733 135.673 8.39304 133.45 8.0066L133.459 7.75336C133.459 7.75336 129.083 -0.0829322 122.374 0.0300984L122.416 0ZM106.253 60.7524L124.222 72.8228L105.997 79.5364L84.5719 65.3322C84.5353 65.268 84.5031 65.1934 84.4637 65.1071L84.7261 64.8337L106.253 60.7524ZM125.288 74.1126L125.507 83.4618L114.171 87.8047L116.116 88.9064C116.116 88.9064 116.803 89.489 114.102 87.8384C112.152 86.6491 108.306 87.4017 106.303 87.9118L106.925 87.6788L106.669 81.0412L125.288 74.1126Z" fill="url(#paint0_linear_245_1643)"/>
<defs>
<linearGradient id="paint0_linear_245_1643" x1="71.5174" y1="0.655951" x2="145.229" y2="106.381" gradientUnits="userSpaceOnUse">
<stop stop-color="#4B87FF"/>
<stop offset="1" stop-color="#0B72FF"/>
</linearGradient>
</defs>
</svg>
