<svg width="76" height="106" viewBox="0 0 76 106" fill="none" xmlns="http://www.w3.org/2000/svg">
<path d="M52.4157 0C52.0817 0.00394506 51.7524 0.0274834 51.4104 0.0733562C44.1355 1.05311 42.9616 5.00432 42.9616 5.00432L42.9891 5.0319C41.1925 7.52362 40.0385 11.4527 40.0405 17.2022C40.0402 17.8361 40.0588 18.4424 40.0772 19.0324L39.935 17.6003C39.8432 17.2599 39.5772 17.0341 39.2689 16.869C38.8185 16.6139 38.4662 16.6067 38.0076 16.8049C36.7136 17.3673 36.681 18.9019 36.7652 20.1046C36.8202 20.9349 36.8386 21.8015 37.1532 22.5842C37.4532 23.3227 38.2879 24.7361 39.2771 24.4238C39.6752 24.2981 40.0285 24.0973 40.3335 23.8101C40.3702 23.7826 40.4738 23.677 40.5215 23.6155C41.5365 29.591 44.0274 32.3577 46.837 33.4294C46.937 33.6588 47.3947 34.2671 47.2259 34.5205C47.0076 34.8435 46.1986 34.3829 45.9371 34.3013C44.8671 33.9765 44.0538 33.108 43.1304 32.5325C42.8524 32.3609 42.568 32.2288 42.2689 32.0985C41.8707 31.9251 41.3973 31.6802 40.955 31.8426C40.1532 32.1334 40.2559 34.7351 40.2293 35.3841C40.2213 35.7337 39.977 37.1139 40.0403 37.3615C40.0495 37.3982 40.1495 37.4762 40.2238 37.5322L39.9449 37.4679L28.5758 37.5817L9.44554 47.1588L9.49138 49.0602L-0.00012207 55.8732C-0.00012207 55.8732 0.543917 69.8025 2.56461 80.764C4.58605 91.7253 12.9095 101.089 12.9095 101.089C12.9095 101.089 21.1236 107.437 21.6663 104.199C22.2086 100.961 20.9755 96.7998 20.1206 94.9062C19.2655 93.0133 14.7776 91.0895 14.7776 91.0895L12.8526 67.242L13.215 66.7796C13.2609 66.8163 13.3067 66.8888 13.3673 66.92C13.3706 66.9221 13.3732 66.9269 13.3747 66.9255C13.3834 66.9281 13.3931 66.9438 13.4115 66.9438L21.0067 71.9932L21.0434 81.1671L23.9495 81.3717L26.4773 84.325L26.6103 75.5066L35.0686 81.2999L35.2631 88.2315C35.1237 88.2774 35.0127 88.3049 35.0127 88.3049C35.0127 88.3049 28.2994 92.9615 29.8021 94.9233C31.3046 96.8851 37.6791 97.5801 39.9434 97.6353C42.2077 97.6903 47.9794 94.2026 47.9794 94.2026L75.9878 86.9552C75.9878 86.9552 76.0951 77.4797 75.6703 73.7134C75.2446 69.9474 72.9872 63.3211 72.9872 63.3211L75.2772 62.5486L67.4166 46.3248L55.3838 41.209L55.2801 41.1814C55.2342 41.0447 55.1342 40.8915 55.0966 40.752C54.9837 40.3382 54.8755 39.9548 54.9021 39.5197C54.9846 38.2136 55.0856 37.0059 55.5801 35.7553C55.6719 35.5195 56.4709 34.8763 56.6787 34.6307C57.1117 34.1188 57.6083 33.43 57.9828 32.7629C60.5768 29.3103 64.0691 23.0356 63.4964 14.7988C63.4942 14.7254 63.4597 14.6482 63.4597 14.5758C63.5056 14.7253 63.5578 14.8189 63.533 14.8345L69.5872 14.8161C69.5872 14.8161 71.1443 14.2428 70.5666 13.0465C69.9987 11.8733 65.6732 8.39304 63.4503 8.0066L63.4585 7.75336C63.4585 7.75336 59.0827 -0.0829322 52.3739 0.0300984L52.4157 0ZM36.2529 60.7524L54.2217 72.8228L35.9968 79.5364L14.5719 65.3322C14.5352 65.268 14.503 65.1934 14.4636 65.1071L14.726 64.8337L36.2529 60.7524ZM55.2883 74.1126L55.5067 83.4618L44.1709 87.8047L46.1163 88.9064C46.1163 88.9064 46.8026 89.489 44.1018 87.8384C42.1518 86.6491 38.3057 87.4017 36.3027 87.9118L36.9247 87.6788L36.6687 81.0412L55.2883 74.1126Z" fill="url(#paint0_linear_245_1656)"/>
<defs>
<linearGradient id="paint0_linear_245_1656" x1="1.51727" y1="0.655951" x2="75.2289" y2="106.381" gradientUnits="userSpaceOnUse">
<stop stop-color="#4B87FF"/>
<stop offset="1" stop-color="#0B72FF"/>
</linearGradient>
</defs>
</svg>
